<svg viewBox="0 0 17 17" fill="none" xmlns="http://www.w3.org/2000/svg" xmlns:xlink="http://www.w3.org/1999/xlink" x="0" y="0"><defs><mask id="path-156-inside-14_1_6265" fill="white">
<path d="M0,8.5c0,-4.69 3.806,-8.5 8.5,-8.5c4.694,0 8.5,3.81 8.5,8.5c0,4.69 -3.806,8.5 -8.5,8.5c-4.694,0 -8.5,-3.81 -8.5,-8.5z"/>
</mask></defs><g id="Background+Border_2">
<mask id="path-156-inside-14_1_6265" fill="white">
<path d="M229.5 2108.5C229.5 2103.81 233.306 2100 238 2100C242.694 2100 246.5 2103.81 246.5 2108.5C246.5 2113.19 242.694 2117 238 2117C233.306 2117 229.5 2113.19 229.5 2108.5Z"/>
</mask>
<path d="M0,8.5c0,-4.69 3.806,-8.5 8.5,-8.5c4.694,0 8.5,3.81 8.5,8.5c0,4.69 -3.806,8.5 -8.5,8.5c-4.694,0 -8.5,-3.81 -8.5,-8.5z" fill="white"/>
<path d="M8.5,17v-1c-4.142,0 -7.5,-3.36 -7.5,-7.5h-1h-1c0,5.25 4.253,9.5 9.5,9.5zM17,8.5h-1c0,4.14 -3.358,7.5 -7.5,7.5v1v1c5.247,0 9.5,-4.25 9.5,-9.5zM8.5,0v1c4.142,0 7.5,3.36 7.5,7.5h1h1c0,-5.25 -4.253,-9.5 -9.5,-9.5zM8.5,0v-1c-5.247,0 -9.5,4.25 -9.5,9.5h1h1c0,-4.14 3.358,-7.5 7.5,-7.5z" fill="#DFDFDF" mask="url(#path-156-inside-14_1_6265)"/>
</g></svg>