<svg viewBox="0 0 6 11.9945" fill="none" xmlns="http://www.w3.org/2000/svg" xmlns:xlink="http://www.w3.org/1999/xlink" x="0" y="0"><path id="Vector_28" d="M5.93,5.8305l-5.496,-5.754c-0.047,-0.047 -0.106,-0.072 -0.176,-0.076c-0.07,-0.004 -0.129,0.018 -0.176,0.064c-0.055,0.047 -0.082,0.106 -0.082,0.176c0,0.071 0.023,0.129 0.07,0.176l5.332,5.578l-5.332,5.578c-0.047,0.055 -0.07,0.115 -0.07,0.182c0,0.066 0.027,0.123 0.082,0.17c0.023,0.023 0.049,0.041 0.076,0.053c0.028,0.011 0.057,0.017 0.088,0.017c0.039,0 0.074,-0.006 0.106,-0.017c0.031,-0.012 0.058,-0.03 0.082,-0.053l5.496,-5.754c0.047,-0.047 0.07,-0.104 0.07,-0.17c0,-0.066 -0.023,-0.123 -0.07,-0.17z" fill="currentColor"/></svg>