<svg viewBox="0 0 17 16.668" fill="none" xmlns="http://www.w3.org/2000/svg" xmlns:xlink="http://www.w3.org/1999/xlink" x="0" y="0"><path id="Vector_29" d="M3.636,2.8054h-3.138c-0.133,0 -0.249,-0.049 -0.349,-0.149c-0.099,-0.1 -0.149,-0.221 -0.149,-0.365c0,-0.133 0.05,-0.249 0.149,-0.349c0.1,-0.1 0.216,-0.149 0.349,-0.149h3.138c0.133,0 0.249,0.049 0.348,0.149c0.1,0.1 0.15,0.216 0.15,0.349c0,0.144 -0.05,0.265 -0.15,0.365c-0.099,0.1 -0.215,0.149 -0.348,0.149zM5.429,4.5824c-0.631,0 -1.171,-0.224 -1.619,-0.673c-0.448,-0.448 -0.672,-0.987 -0.672,-1.618c0,-0.631 0.224,-1.171 0.672,-1.619c0.448,-0.448 0.988,-0.672 1.619,-0.672c0.631,0 1.17,0.224 1.618,0.672c0.449,0.448 0.673,0.988 0.673,1.619c0,0.631 -0.224,1.17 -0.673,1.618c-0.448,0.449 -0.987,0.673 -1.618,0.673zM5.429,1.0124c-0.354,0 -0.659,0.125 -0.913,0.374c-0.255,0.249 -0.382,0.55 -0.382,0.905c0,0.365 0.127,0.672 0.382,0.921c0.254,0.249 0.559,0.374 0.913,0.374c0.354,0 0.655,-0.125 0.904,-0.374c0.25,-0.249 0.374,-0.556 0.374,-0.921c0,-0.355 -0.124,-0.656 -0.374,-0.905c-0.249,-0.249 -0.55,-0.374 -0.904,-0.374zM16.502,2.8054h-7.471c-0.144,0 -0.263,-0.049 -0.357,-0.149c-0.094,-0.1 -0.141,-0.221 -0.141,-0.365c0,-0.133 0.047,-0.249 0.141,-0.349c0.094,-0.1 0.213,-0.149 0.357,-0.149h7.471c0.133,0 0.249,0.049 0.349,0.149c0.099,0.1 0.149,0.216 0.149,0.349c0,0.144 -0.05,0.265 -0.149,0.365c-0.1,0.1 -0.216,0.149 -0.349,0.149zM12.136,10.6254c-0.631,0 -1.171,-0.224 -1.619,-0.673c-0.448,-0.448 -0.672,-0.988 -0.672,-1.618c0,-0.631 0.224,-1.171 0.672,-1.619c0.448,-0.448 0.988,-0.672 1.619,-0.672c0.631,0 1.17,0.224 1.618,0.672c0.449,0.448 0.673,0.988 0.673,1.619c0,0.63 -0.224,1.17 -0.673,1.618c-0.448,0.449 -0.987,0.673 -1.618,0.673zM12.136,7.0554c-0.354,0 -0.659,0.125 -0.913,0.374c-0.255,0.249 -0.382,0.55 -0.382,0.905c0,0.354 0.127,0.658 0.382,0.913c0.254,0.254 0.559,0.382 0.913,0.382c0.354,0 0.658,-0.128 0.913,-0.382c0.254,-0.255 0.382,-0.559 0.382,-0.913c0,-0.355 -0.128,-0.656 -0.382,-0.905c-0.255,-0.249 -0.559,-0.374 -0.913,-0.374zM8.533,8.8324h-8.035c-0.133,0 -0.249,-0.047 -0.349,-0.141c-0.099,-0.095 -0.149,-0.213 -0.149,-0.357c0,-0.133 0.05,-0.249 0.149,-0.349c0.1,-0.1 0.216,-0.149 0.349,-0.149h8.035c0.133,0 0.249,0.049 0.349,0.149c0.099,0.1 0.149,0.216 0.149,0.349c0,0.144 -0.05,0.262 -0.149,0.357c-0.1,0.094 -0.216,0.141 -0.349,0.141zM16.502,8.8324h-2.573c-0.144,0 -0.263,-0.047 -0.357,-0.141c-0.094,-0.095 -0.141,-0.213 -0.141,-0.357c0,-0.133 0.047,-0.249 0.141,-0.349c0.094,-0.1 0.213,-0.149 0.357,-0.149h2.573c0.133,0 0.249,0.049 0.349,0.149c0.099,0.1 0.149,0.216 0.149,0.349c0,0.144 -0.05,0.262 -0.149,0.357c-0.1,0.094 -0.216,0.141 -0.349,0.141zM4.864,16.6684c-0.631,0 -1.17,-0.225 -1.618,-0.673c-0.449,-0.448 -0.673,-0.988 -0.673,-1.618c0,-0.631 0.224,-1.171 0.673,-1.619c0.448,-0.448 0.987,-0.672 1.618,-0.672c0.631,0 1.171,0.224 1.619,0.672c0.448,0.448 0.672,0.988 0.672,1.619c0,0.63 -0.224,1.17 -0.672,1.618c-0.448,0.448 -0.988,0.673 -1.619,0.673zM4.864,13.0984c-0.354,0 -0.658,0.125 -0.913,0.374c-0.254,0.249 -0.382,0.55 -0.382,0.905c0,0.354 0.128,0.658 0.382,0.913c0.255,0.254 0.559,0.382 0.913,0.382c0.354,0 0.659,-0.128 0.913,-0.382c0.255,-0.255 0.382,-0.559 0.382,-0.913c0,-0.355 -0.127,-0.656 -0.382,-0.905c-0.254,-0.249 -0.559,-0.374 -0.913,-0.374zM16.502,14.8754h-8.035c-0.133,0 -0.249,-0.047 -0.349,-0.141c-0.099,-0.095 -0.149,-0.214 -0.149,-0.357c0,-0.133 0.05,-0.249 0.149,-0.349c0.1,-0.1 0.216,-0.149 0.349,-0.149h8.035c0.133,0 0.249,0.049 0.349,0.149c0.099,0.1 0.149,0.216 0.149,0.349c0,0.143 -0.05,0.262 -0.149,0.357c-0.1,0.094 -0.216,0.141 -0.349,0.141zM3.071,14.8754h-2.573c-0.133,0 -0.249,-0.047 -0.349,-0.141c-0.099,-0.095 -0.149,-0.214 -0.149,-0.357c0,-0.133 0.05,-0.249 0.149,-0.349c0.1,-0.1 0.216,-0.149 0.349,-0.149h2.573c0.144,0 0.263,0.049 0.357,0.149c0.094,0.1 0.141,0.216 0.141,0.349c0,0.143 -0.047,0.262 -0.141,0.357c-0.094,0.094 -0.213,0.141 -0.357,0.141z" fill="currentColor"/></svg>