<svg viewBox="0 0 277.5 7" fill="none" xmlns="http://www.w3.org/2000/svg" xmlns:xlink="http://www.w3.org/1999/xlink" x="0" y="0"><defs><mask id="path-162-inside-14_1_7372" fill="white">
<path d="M0,3.5c0,-1.93 1.567,-3.5 3.5,-3.5h270.5c1.933,0 3.5,1.57 3.5,3.5c0,1.93 -1.567,3.5 -3.5,3.5h-270.5c-1.933,0 -3.5,-1.57 -3.5,-3.5z"/>
</mask></defs><g id="Background+Border_3">
<mask id="path-162-inside-14_1_7372" fill="white">
<path d="M270.5 1558.5C270.5 1556.57 272.067 1555 274 1555H544.5C546.433 1555 548 1556.57 548 1558.5C548 1560.43 546.433 1562 544.5 1562H274C272.067 1562 270.5 1560.43 270.5 1558.5Z"/>
</mask>
<path d="M0,3.5c0,-1.93 1.567,-3.5 3.5,-3.5h270.5c1.933,0 3.5,1.57 3.5,3.5c0,1.93 -1.567,3.5 -3.5,3.5h-270.5c-1.933,0 -3.5,-1.57 -3.5,-3.5z" fill="#058031"/>
<path d="M3.5,0v1h270.5v-1v-1h-270.5zM274,7v-1h-270.5v1v1h270.5zM3.5,7v-1c-1.381,0 -2.5,-1.12 -2.5,-2.5h-1h-1c0,2.49 2.015,4.5 4.5,4.5zM277.5,3.5h-1c0,1.38 -1.119,2.5 -2.5,2.5v1v1c2.485,0 4.5,-2.01 4.5,-4.5zM274,0v1c1.381,0 2.5,1.12 2.5,2.5h1h1c0,-2.49 -2.015,-4.5 -4.5,-4.5zM3.5,0v-1c-2.485,0 -4.5,2.01 -4.5,4.5h1h1c0,-1.38 1.119,-2.5 2.5,-2.5z" fill="#058031" mask="url(#path-162-inside-14_1_7372)"/>
</g></svg>