<svg viewBox="0 0 24 24" fill="none" xmlns="http://www.w3.org/2000/svg" xmlns:xlink="http://www.w3.org/1999/xlink" x="0" y="0"><path id="Vector_34" d="M23.79,5.4609c-0.09,-0.1093 -0.2,-0.1953 -0.33,-0.2578c-0.12,-0.0625 -0.26,-0.0937 -0.4,-0.0937h-16.99l-0.05,-0.6328l-0.02,-0.0235c-0.08,-0.625 -0.27,-1.2109 -0.56,-1.7578c-0.3,-0.5469 -0.67,-1.0195 -1.13,-1.418c-0.45,-0.3984 -0.97,-0.707 -1.54,-0.9257c-0.58,-0.2344 -1.19,-0.3516 -1.83,-0.3516c-0.27,0 -0.49,0.0937 -0.67,0.2812c-0.18,0.1875 -0.27,0.4063 -0.27,0.6563c0,0.2656 0.09,0.4883 0.27,0.668c0.18,0.1796 0.4,0.2695 0.67,0.2695c0.81,0 1.52,0.2695 2.13,0.8086c0.61,0.539 0.97,1.207 1.08,2.0039l1.12,10.2422c-0.5,0.2187 -0.9,0.5586 -1.2,1.0195c-0.31,0.4609 -0.46,0.9727 -0.46,1.5352c0,0.0156 0,0.0234 0,0.0234c0,0.0156 0,0.0234 0,0.0234c0,0.7813 0.27,1.4454 0.82,1.9922c0.55,0.5469 1.21,0.8203 1.99,0.8203h0.38c-0.05,0.1407 -0.09,0.2852 -0.11,0.4336c-0.02,0.1485 -0.03,0.3008 -0.03,0.4571c0,0.7656 0.27,1.4179 0.8,1.957c0.54,0.5391 1.2,0.8086 1.96,0.8086c0.77,0 1.42,-0.2695 1.96,-0.8086c0.54,-0.5391 0.81,-1.1914 0.81,-1.957c0,-0.1563 -0.01,-0.3086 -0.04,-0.4571c-0.02,-0.1484 -0.06,-0.2929 -0.1,-0.4336h4.03c-0.05,0.1407 -0.08,0.2852 -0.11,0.4336c-0.02,0.1485 -0.03,0.3008 -0.03,0.4571c0,0.7656 0.27,1.4179 0.81,1.957c0.54,0.5391 1.19,0.8086 1.95,0.8086c0.77,0 1.42,-0.2695 1.96,-0.8086c0.54,-0.5391 0.81,-1.1914 0.81,-1.957c0,-0.75 -0.27,-1.3985 -0.81,-1.9454c-0.54,-0.5468 -1.19,-0.8203 -1.96,-0.8203h-12.28c-0.26,0 -0.49,-0.0898 -0.67,-0.2695c-0.18,-0.1797 -0.27,-0.4023 -0.27,-0.668c0,0 0,-0.0078 0,-0.0234c0,0 0,-0.0078 0,-0.0234c0,-0.25 0.09,-0.4688 0.27,-0.6563c0.18,-0.1875 0.41,-0.2812 0.67,-0.2812h11.98c0.83,0 1.59,-0.2383 2.3,-0.7149c0.7,-0.4765 1.23,-1.1133 1.59,-1.9101c0.09,-0.2344 0.09,-0.4727 0,-0.7149c-0.09,-0.2422 -0.26,-0.4101 -0.49,-0.5039c-0.24,-0.1094 -0.48,-0.1172 -0.72,-0.0234c-0.24,0.0937 -0.42,0.2578 -0.53,0.4922c-0.18,0.4531 -0.48,0.8164 -0.87,1.0898c-0.4,0.2734 -0.83,0.4102 -1.28,0.4102h-11.28l-0.84,-7.6875h15.63l-0.46,2.2031c-0.05,0.25 0,0.4844 0.14,0.7031c0.14,0.2188 0.33,0.3516 0.58,0.3984c0.03,0.0157 0.06,0.0235 0.1,0.0235c0.03,0 0.06,0 0.09,0c0.22,0 0.42,-0.0664 0.6,-0.1992c0.18,-0.1328 0.29,-0.3086 0.34,-0.5274l0.68,-3.3281c0.03,-0.1406 0.03,-0.2812 0,-0.4219c-0.03,-0.1406 -0.1,-0.2656 -0.19,-0.375zM18.7,20.3437c0.25,0 0.46,0.0899 0.64,0.2696c0.17,0.1797 0.25,0.3867 0.25,0.6211c0,0.25 -0.08,0.4609 -0.25,0.6328c-0.18,0.1718 -0.39,0.2578 -0.64,0.2578c-0.25,0 -0.46,-0.086 -0.63,-0.2578c-0.17,-0.1719 -0.26,-0.3828 -0.26,-0.6328c0,-0.2344 0.09,-0.4414 0.26,-0.6211c0.17,-0.1797 0.38,-0.2696 0.63,-0.2696zM9.42,20.3437c0.25,0 0.46,0.0899 0.63,0.2696c0.18,0.1797 0.26,0.3867 0.26,0.6211c0,0.25 -0.08,0.4609 -0.26,0.6328c-0.17,0.1718 -0.38,0.2578 -0.63,0.2578c-0.25,0 -0.46,-0.086 -0.63,-0.2578c-0.17,-0.1719 -0.26,-0.3828 -0.26,-0.6328c0,-0.2344 0.09,-0.4414 0.26,-0.6211c0.17,-0.1797 0.38,-0.2696 0.63,-0.2696z" fill="currentColor"/></svg>