<svg viewBox="0 0 24 20.7422" fill="none" xmlns="http://www.w3.org/2000/svg" xmlns:xlink="http://www.w3.org/1999/xlink" x="0" y="0"><path id="Vector_33" d="M17.37,0c0.9,0 1.76,0.1719 2.58,0.5156c0.81,0.3438 1.51,0.8164 2.1,1.418c0.6,0.6016 1.07,1.3086 1.43,2.1211c0.35,0.7969 0.52,1.6563 0.52,2.5781c0,1.5156 -0.63,3.1016 -1.88,4.7578c-1.25,1.6563 -2.62,3.1758 -4.12,4.5586c-1.5,1.3828 -2.88,2.5274 -4.13,3.4336c-1.25,0.9063 -1.87,1.3594 -1.87,1.3594c0,0 -0.63,-0.4375 -1.88,-1.3125c-1.25,-0.875 -2.62,-1.9961 -4.12,-3.3633c-1.5,-1.3672 -2.88,-2.8867 -4.13,-4.5586c-1.25,-1.6562 -1.87,-3.2812 -1.87,-4.875c0,-1.1406 0.17,-2.125 0.52,-2.9531c0.35,-0.8437 0.83,-1.5352 1.43,-2.0742c0.59,-0.5391 1.29,-0.9414 2.1,-1.2071c0.8,-0.2656 1.66,-0.3984 2.58,-0.3984c1.11,0 2.13,0.25 3.06,0.75c0.93,0.5 1.7,1.1641 2.31,1.9922c0.61,-0.8281 1.38,-1.4922 2.31,-1.9922c0.93,-0.5 1.95,-0.75 3.06,-0.75z" fill="currentColor"/></svg>