<svg viewBox="0 0 14.9456 19.069" fill="none" xmlns="http://www.w3.org/2000/svg" xmlns:xlink="http://www.w3.org/1999/xlink" x="0" y="0"><path id="Vector_27" d="M14.1083,4.0177c-0.56,-1.09 -1.38,-2.03 -2.39,-2.73c-1.02,-0.69 -2.19,-1.12 -3.41,-1.25c-0.56,-0.05 -1.11,-0.05 -1.67,0c-1.22,0.13 -2.39,0.56 -3.41,1.25c-1.01,0.7 -1.83,1.64 -2.39,2.73c-0.7,1.4 -0.97,2.98 -0.78,4.53c0.2,1.55 0.84,3.01 1.87,4.2l4.98,6.05c0.07,0.09 0.15,0.15 0.25,0.2c0.1,0.05 0.21,0.07 0.31,0.07c0.11,0 0.22,-0.02 0.32,-0.07c0.1,-0.05 0.18,-0.11 0.25,-0.2l4.98,-6.05c1.02,-1.19 1.67,-2.65 1.87,-4.2c0.19,-1.55 -0.08,-3.13 -0.78,-4.53zM7.4683,10.2677c-0.58,0 -1.14,-0.17 -1.63,-0.49c-0.48,-0.33 -0.85,-0.79 -1.08,-1.32c-0.22,-0.54 -0.28,-1.13 -0.16,-1.7c0.11,-0.57 0.39,-1.09 0.8,-1.5c0.41,-0.41 0.93,-0.69 1.5,-0.8c0.57,-0.11 1.16,-0.06 1.7,0.17c0.53,0.22 0.99,0.59 1.31,1.08c0.33,0.48 0.5,1.05 0.5,1.63c0,0.77 -0.31,1.52 -0.86,2.07c-0.55,0.55 -1.3,0.86 -2.08,0.86z" fill="currentColor"/></svg>