<svg viewBox="0 0 17 17" fill="none" xmlns="http://www.w3.org/2000/svg" xmlns:xlink="http://www.w3.org/1999/xlink" x="0" y="0"><defs><mask id="path-198-inside-22_1_6265" fill="white">
<path d="M0,8.5c0,-4.69 3.81,-8.5 8.5,-8.5c4.69,0 8.5,3.81 8.5,8.5c0,4.69 -3.81,8.5 -8.5,8.5c-4.69,0 -8.5,-3.81 -8.5,-8.5z"/>
</mask></defs><g id="Background+Border_6">
<mask id="path-198-inside-22_1_6265" fill="white">
<path d="M1258.5 1714C1258.5 1709.31 1262.31 1705.5 1267 1705.5C1271.69 1705.5 1275.5 1709.31 1275.5 1714C1275.5 1718.69 1271.69 1722.5 1267 1722.5C1262.31 1722.5 1258.5 1718.69 1258.5 1714Z"/>
</mask>
<path d="M0,8.5c0,-4.69 3.81,-8.5 8.5,-8.5c4.69,0 8.5,3.81 8.5,8.5c0,4.69 -3.81,8.5 -8.5,8.5c-4.69,0 -8.5,-3.81 -8.5,-8.5z" fill="white"/>
<path d="M8.5,17v-1c-4.14,0 -7.5,-3.36 -7.5,-7.5h-1h-1c0,5.25 4.25,9.5 9.5,9.5zM17,8.5h-1c0,4.14 -3.36,7.5 -7.5,7.5v1v1c5.25,0 9.5,-4.25 9.5,-9.5zM8.5,0v1c4.14,0 7.5,3.36 7.5,7.5h1h1c0,-5.25 -4.25,-9.5 -9.5,-9.5zM8.5,0v-1c-5.25,0 -9.5,4.25 -9.5,9.5h1h1c0,-4.14 3.36,-7.5 7.5,-7.5z" fill="#DFDFDF" mask="url(#path-198-inside-22_1_6265)"/>
</g></svg>