<svg viewBox="0 0 12 6.0063" fill="none" xmlns="http://www.w3.org/2000/svg" xmlns:xlink="http://www.w3.org/1999/xlink" x="0" y="0"><path id="Vector_30" d="M11.918,5.5739l-5.742,-5.5c-0.047,-0.05 -0.106,-0.07 -0.176,-0.07c-0.07,0 -0.129,0.02 -0.176,0.07l-5.742,5.5c-0.055,0.05 -0.082,0.11 -0.082,0.17c0,0.07 0.023,0.13 0.07,0.19c0.047,0.04 0.106,0.07 0.176,0.07c0.07,0.01 0.129,-0.02 0.176,-0.07l5.578,-5.34l5.578,5.34c0.023,0.02 0.051,0.04 0.082,0.05c0.031,0.01 0.063,0.02 0.094,0.02c0.031,0 0.062,-0.01 0.094,-0.02c0.031,-0.01 0.058,-0.03 0.082,-0.05c0.046,-0.06 0.07,-0.12 0.07,-0.19c0,-0.06 -0.027,-0.12 -0.082,-0.17z" fill="currentColor"/></svg>