<svg viewBox="0 0 18 9.9844" fill="none" xmlns="http://www.w3.org/2000/svg" xmlns:xlink="http://www.w3.org/1999/xlink" x="0" y="0"><path id="Vector_107" d="M0.75,0.023c-0.188,0.047 -0.359,0.168 -0.516,0.364c-0.156,0.195 -0.234,0.386 -0.234,0.574c0,0.219 0.066,0.422 0.199,0.609c0.133,0.188 0.293,0.313 0.481,0.375c0.078,0.016 0.968,0.032 2.672,0.047c1.718,0.016 3.601,0.024 5.648,0.024c2.047,0 3.93,-0.008 5.648,-0.024c1.704,-0.015 2.594,-0.031 2.672,-0.047c0.125,-0.047 0.25,-0.133 0.375,-0.257c0.125,-0.126 0.211,-0.258 0.258,-0.399c0.063,-0.234 0.051,-0.457 -0.035,-0.668c-0.086,-0.211 -0.23,-0.371 -0.434,-0.48l-0.211,-0.141h-8.179c-1.125,0 -2.188,0 -3.188,0c-1,0 -1.879,0 -2.636,0c-0.758,0 -1.364,0.008 -1.817,0.023c-0.437,0 -0.672,0 -0.703,0zM0.586,4.102c-0.391,0.203 -0.586,0.503 -0.586,0.902c0,0.398 0.188,0.699 0.562,0.902c0.094,0.032 0.52,0.051 1.278,0.059c0.758,0.008 3.137,0.012 7.137,0.012c3.968,0 6.343,-0.004 7.125,-0.012c0.781,-0.008 1.218,-0.027 1.312,-0.059c0.391,-0.187 0.586,-0.484 0.586,-0.89c0,-0.407 -0.188,-0.711 -0.562,-0.914c-0.094,-0.047 -0.52,-0.075 -1.278,-0.082c-0.758,-0.008 -3.144,-0.012 -7.16,-0.012c-3.719,0 -6.035,0.004 -6.949,0.012c-0.914,0.007 -1.403,0.035 -1.465,0.082zM0.656,8.062c-0.109,0.032 -0.23,0.118 -0.363,0.258c-0.133,0.141 -0.215,0.274 -0.246,0.399c-0.063,0.219 -0.051,0.433 0.035,0.644c0.086,0.211 0.23,0.379 0.434,0.504l0.211,0.117h8.531l0.211,-0.117c0.156,-0.078 0.277,-0.187 0.363,-0.328c0.086,-0.141 0.137,-0.297 0.152,-0.469c0,-0.172 -0.023,-0.32 -0.07,-0.445c-0.047,-0.125 -0.125,-0.242 -0.234,-0.352c-0.157,-0.14 -0.403,-0.222 -0.739,-0.246c-0.336,-0.023 -1.644,-0.027 -3.925,-0.011c-1.266,0 -2.297,0.004 -3.094,0.011c-0.797,0.008 -1.219,0.02 -1.266,0.035z" fill="currentColor"/></svg>