<svg viewBox="0 0 24 24" fill="none" xmlns="http://www.w3.org/2000/svg" xmlns:xlink="http://www.w3.org/1999/xlink" x="0" y="0"><path id="Vector_106" d="M12.75,24h-1.5c-0.61,0 -1.13,-0.2149 -1.56,-0.6445c-0.43,-0.4297 -0.64,-0.9493 -0.64,-1.5586v-0.5157c-0.27,-0.0781 -0.53,-0.1679 -0.78,-0.2695c-0.25,-0.1016 -0.5,-0.2148 -0.75,-0.3398l-0.35,0.3515c-0.44,0.4375 -0.96,0.6524 -1.57,0.6446c-0.61,-0.0079 -1.12,-0.2227 -1.55,-0.6446l-1.07,-1.0547c-0.43,-0.4375 -0.64,-0.9609 -0.65,-1.5703c-0.01,-0.6094 0.21,-1.1328 0.65,-1.5703l0.37,-0.3515c-0.12,-0.25 -0.24,-0.5 -0.35,-0.75c-0.11,-0.25 -0.2,-0.5 -0.28,-0.75h-0.52c-0.61,0 -1.13,-0.2188 -1.56,-0.6563c-0.43,-0.4375 -0.64,-0.9609 -0.64,-1.5703v-1.5c0,-0.6094 0.21,-1.1289 0.64,-1.5586c0.43,-0.4297 0.95,-0.6445 1.56,-0.6445h0.52c0.08,-0.2657 0.17,-0.5235 0.28,-0.7735c0.11,-0.25 0.23,-0.4922 0.35,-0.7265l-0.37,-0.375c-0.44,-0.4375 -0.66,-0.961 -0.65,-1.5703c0.01,-0.6094 0.22,-1.125 0.65,-1.5469l1.07,-1.0547c0.43,-0.4375 0.94,-0.6563 1.55,-0.6563c0.61,0 1.13,0.2188 1.57,0.6563l0.35,0.3516c0.25,-0.125 0.5,-0.2383 0.75,-0.3399c0.25,-0.1016 0.51,-0.1992 0.78,-0.293v-0.4921c0,-0.6094 0.21,-1.1329 0.64,-1.5704c0.43,-0.4375 0.95,-0.6562 1.56,-0.6562h1.5c0.61,0 1.13,0.2187 1.56,0.6562c0.43,0.4375 0.64,0.961 0.64,1.5704v0.4921c0.27,0.0938 0.53,0.1914 0.78,0.293c0.25,0.1016 0.5,0.2149 0.75,0.3399l0.35,-0.3516c0.44,-0.4375 0.96,-0.6563 1.57,-0.6563c0.61,0 1.12,0.2188 1.55,0.6563l1.07,1.0547c0.43,0.4219 0.64,0.9375 0.65,1.5469c0.01,0.6093 -0.21,1.1328 -0.65,1.5703l-0.37,0.375c0.12,0.2343 0.24,0.4765 0.35,0.7265c0.11,0.25 0.2,0.5078 0.28,0.7735h0.52c0.61,0 1.13,0.2148 1.56,0.6445c0.43,0.4297 0.64,0.9492 0.64,1.5586v1.5c0,0.6094 -0.21,1.1328 -0.64,1.5703c-0.43,0.4375 -0.95,0.6563 -1.56,0.6563h-0.52c-0.08,0.25 -0.17,0.5 -0.28,0.75c-0.11,0.25 -0.23,0.5 -0.35,0.75l0.37,0.3515c0.44,0.4375 0.66,0.9609 0.65,1.5703c-0.01,0.6094 -0.22,1.1328 -0.65,1.5703l-1.07,1.0547c-0.43,0.4219 -0.94,0.6367 -1.55,0.6446c-0.61,0.0078 -1.13,-0.2071 -1.57,-0.6446l-0.35,-0.3515c-0.25,0.125 -0.5,0.2382 -0.75,0.3398c-0.25,0.1016 -0.51,0.1914 -0.78,0.2695v0.5157c0,0.6093 -0.21,1.1289 -0.64,1.5586c-0.43,0.4296 -0.95,0.6445 -1.56,0.6445zM7.76,19.1953c0.34,0.1875 0.69,0.3555 1.05,0.5039c0.36,0.1484 0.73,0.2774 1.1,0.3867c0.16,0.0313 0.29,0.1133 0.39,0.2461c0.1,0.1328 0.15,0.2774 0.15,0.4336v1.0313c0,0.2187 0.08,0.4062 0.24,0.5625c0.15,0.1562 0.34,0.2343 0.56,0.2343h1.5c0.22,0 0.41,-0.0781 0.56,-0.2343c0.16,-0.1563 0.24,-0.3438 0.24,-0.5625v-1.0313c0,-0.1562 0.05,-0.3008 0.15,-0.4336c0.1,-0.1328 0.23,-0.2148 0.39,-0.2461c0.37,-0.1093 0.74,-0.2383 1.1,-0.3867c0.36,-0.1484 0.71,-0.3164 1.05,-0.5039c0.13,-0.0937 0.27,-0.1289 0.44,-0.1055c0.16,0.0235 0.3,0.0899 0.41,0.1992l0.72,0.75c0.17,0.1563 0.37,0.2344 0.59,0.2344c0.22,0 0.4,-0.0781 0.56,-0.2344l1.06,-1.0781c0.15,-0.1562 0.23,-0.3437 0.24,-0.5625c0.01,-0.2187 -0.07,-0.4062 -0.24,-0.5625l-0.73,-0.75c-0.11,-0.1093 -0.18,-0.2422 -0.2,-0.3984c-0.02,-0.1563 0,-0.3047 0.08,-0.4453c0.21,-0.3438 0.38,-0.6953 0.53,-1.0547c0.15,-0.3594 0.27,-0.7266 0.36,-1.1016c0.05,-0.1562 0.14,-0.2812 0.26,-0.375c0.13,-0.0937 0.27,-0.1406 0.42,-0.1406h1.06c0.22,0 0.4,-0.0781 0.56,-0.2344c0.16,-0.1562 0.23,-0.3515 0.23,-0.5859v-1.5c0,-0.2188 -0.07,-0.4063 -0.23,-0.5625c-0.16,-0.1563 -0.34,-0.2344 -0.56,-0.2344h-1.06c-0.15,0 -0.29,-0.0508 -0.42,-0.1523c-0.12,-0.1016 -0.21,-0.2305 -0.26,-0.3868c-0.09,-0.375 -0.21,-0.7421 -0.36,-1.1015c-0.15,-0.3594 -0.32,-0.7031 -0.53,-1.0313c-0.08,-0.1406 -0.1,-0.289 -0.08,-0.4453c0.02,-0.1562 0.09,-0.2969 0.2,-0.4219l0.73,-0.7265c0.17,-0.1563 0.25,-0.3477 0.24,-0.5742c-0.01,-0.2266 -0.09,-0.418 -0.24,-0.5743l-1.06,-1.0546c-0.16,-0.1563 -0.34,-0.2344 -0.56,-0.2344c-0.22,0 -0.42,0.0781 -0.59,0.2344l-0.72,0.7265c-0.11,0.125 -0.25,0.1953 -0.41,0.211c-0.17,0.0156 -0.31,-0.0157 -0.44,-0.0938c-0.34,-0.2031 -0.69,-0.3789 -1.05,-0.5273c-0.36,-0.1485 -0.73,-0.2696 -1.1,-0.3633c-0.16,-0.0469 -0.29,-0.1328 -0.39,-0.2578c-0.1,-0.125 -0.15,-0.2657 -0.15,-0.4219v-1.0312c0,-0.2344 -0.08,-0.4297 -0.24,-0.586c-0.15,-0.1562 -0.34,-0.2344 -0.56,-0.2344h-1.5c-0.22,0 -0.41,0.0782 -0.56,0.2344c-0.16,0.1563 -0.24,0.3516 -0.24,0.586v1.0312c0,0.1562 -0.05,0.2969 -0.15,0.4219c-0.1,0.125 -0.23,0.2109 -0.39,0.2578c-0.37,0.0937 -0.74,0.2148 -1.1,0.3633c-0.36,0.1484 -0.71,0.3242 -1.05,0.5273c-0.13,0.0781 -0.27,0.1094 -0.44,0.0938c-0.16,-0.0157 -0.3,-0.086 -0.41,-0.211l-0.72,-0.7265c-0.17,-0.1563 -0.37,-0.2344 -0.59,-0.2344c-0.22,0 -0.4,0.0781 -0.56,0.2344l-1.06,1.0546c-0.15,0.1563 -0.23,0.3477 -0.24,0.5743c-0.01,0.2265 0.07,0.4179 0.24,0.5742l0.73,0.7265c0.11,0.125 0.18,0.2657 0.2,0.4219c0.02,0.1563 0,0.3047 -0.08,0.4453c-0.21,0.3282 -0.38,0.6719 -0.53,1.0313c-0.15,0.3594 -0.27,0.7265 -0.36,1.1015c-0.05,0.1563 -0.14,0.2852 -0.26,0.3868c-0.13,0.1015 -0.27,0.1523 -0.42,0.1523h-1.06c-0.22,0 -0.4,0.0781 -0.56,0.2344c-0.16,0.1562 -0.23,0.3437 -0.23,0.5625v1.5c0,0.2344 0.07,0.4297 0.23,0.5859c0.16,0.1563 0.34,0.2344 0.56,0.2344h1.06c0.15,0 0.29,0.0469 0.42,0.1406c0.12,0.0938 0.21,0.2188 0.26,0.375c0.09,0.375 0.21,0.7422 0.36,1.1016c0.15,0.3594 0.32,0.7109 0.53,1.0547c0.08,0.1406 0.1,0.289 0.08,0.4453c-0.02,0.1562 -0.09,0.2891 -0.2,0.3984l-0.73,0.75c-0.17,0.1563 -0.25,0.3438 -0.24,0.5625c0.01,0.2188 0.09,0.4063 0.24,0.5625l1.06,1.0781c0.16,0.1563 0.34,0.2344 0.56,0.2344c0.22,0 0.42,-0.0781 0.59,-0.2344l0.72,-0.75c0.08,-0.0781 0.2,-0.1406 0.37,-0.1874c0.16,-0.0469 0.32,-0.0157 0.48,0.0937zM12,17.2266c-0.72,0 -1.4,-0.1329 -2.04,-0.3985c-0.62,-0.2812 -1.17,-0.6562 -1.65,-1.125c-0.48,-0.4687 -0.85,-1.0234 -1.11,-1.6641c-0.29,-0.6406 -0.43,-1.3203 -0.43,-2.039c0,-0.7188 0.14,-1.3906 0.43,-2.0156c0.26,-0.6407 0.63,-1.1954 1.11,-1.6641c0.48,-0.4687 1.03,-0.8437 1.65,-1.125c0.64,-0.2656 1.32,-0.3984 2.04,-0.3984c0.72,0 1.4,0.1328 2.04,0.3984c0.62,0.2813 1.17,0.6563 1.65,1.125c0.48,0.4687 0.85,1.0234 1.11,1.6641c0.29,0.625 0.43,1.2968 0.43,2.0156c0,0.7187 -0.14,1.3984 -0.43,2.039c-0.26,0.6407 -0.63,1.1954 -1.11,1.6641c-0.48,0.4688 -1.03,0.8438 -1.65,1.125c-0.64,0.2656 -1.32,0.3985 -2.04,0.3985zM12,8.2031c-1.05,0 -1.95,0.3711 -2.7,1.1133c-0.75,0.7422 -1.12,1.6367 -1.12,2.6836c0,1.0625 0.37,1.9648 1.12,2.707c0.75,0.7422 1.65,1.1133 2.7,1.1133c1.05,0 1.95,-0.3711 2.7,-1.1133c0.75,-0.7422 1.12,-1.6445 1.12,-2.707c0,-1.0469 -0.37,-1.9414 -1.12,-2.6836c-0.75,-0.7422 -1.65,-1.1133 -2.7,-1.1133z" fill="currentColor"/></svg>