<svg viewBox="0 0 16 16" fill="none" xmlns="http://www.w3.org/2000/svg" xmlns:xlink="http://www.w3.org/1999/xlink" x="0" y="0"><g id="SVG_2">
<path id="Vector_100" d="M6.988,4.1492l-4.145,-4.1452l-2.084,2.076c-0.587,0.5869 -0.835,1.3867 -0.739,2.3778c0.404,4.1364 7.424,11.5383 11.825,11.5383c0.837,0 1.544,-0.2651 2.079,-0.8002l2.076,-2.0453l-4.145,-4.1462l-2.11,2.0842c-0.16,0.1611 -0.412,0.189 -0.586,0.0668c-0.691,-0.4903 -1.445,-1.079 -2.115,-1.7496c-0.867,-0.8671 -1.691,-1.8543 -2.206,-2.5359c-0.145,-0.1932 -0.129,-0.4546 0.039,-0.6217z" fill="currentColor"/>
<path id="Vector_101" d="M14.125,6.5668h0.938c0,-3.102 -2.524,-5.6253 -5.626,-5.6253v0.9376c2.585,0 4.688,2.103 4.688,4.6877z" fill="currentColor"/>
<path id="Vector_102" d="M9.437,3.7542c1.551,0 2.813,1.2616 2.813,2.8126h0.937c0,-2.0678 -1.682,-3.7502 -3.75,-3.7502z" fill="currentColor"/>
<path id="Vector_103" d="M9.437,5.6292c0.517,0 0.938,0.4208 0.938,0.9376h0.937c0,-1.0342 -0.841,-1.8751 -1.875,-1.8751z" fill="currentColor"/>
</g></svg>