<svg viewBox="0 0 113 36" fill="none" xmlns="http://www.w3.org/2000/svg" xmlns:xlink="http://www.w3.org/1999/xlink" x="0" y="0"><defs><linearGradient id="paint0_linear_1_7372" x1="18.273000000000025" y1="7.708300000000236" x2="3.2099999999999795" y2="21.718300000000454" gradientUnits="userSpaceOnUse">
<stop stop-color="#00BEFF"/>
<stop offset="0.01" stop-color="#00BEFF"/>
<stop offset="0.26" stop-color="#00BEFF"/>
<stop offset="0.51" stop-color="#00E3FF"/>
<stop offset="0.76" stop-color="#00E3FF"/>
<stop offset="1" stop-color="#00E3FF"/>
</linearGradient><linearGradient id="paint1_linear_1_7372" x1="28.341999999999985" y1="17.87830000000031" x2="8.093999999999994" y2="17.87830000000031" gradientUnits="userSpaceOnUse">
<stop stop-color="#FFE000"/>
<stop offset="0.41" stop-color="#FF9C00"/>
<stop offset="0.78" stop-color="#FF9C00"/>
<stop offset="1" stop-color="#FF9C00"/>
</linearGradient><linearGradient id="paint2_linear_1_7372" x1="20.809000000000026" y1="19.948300000000017" x2="0.3790000000000191" y2="38.93830000000071" gradientUnits="userSpaceOnUse">
<stop stop-color="#FF3A44"/>
<stop offset="1" stop-color="#C31162"/>
</linearGradient><linearGradient id="paint3_linear_1_7372" x1="6.134999999999991" y1="0.03830000000016298" x2="15.254999999999995" y2="8.518300000000636" gradientUnits="userSpaceOnUse">
<stop stop-color="#32A071"/>
<stop offset="0.07" stop-color="#2DA771"/>
<stop offset="0.48" stop-color="#15CF74"/>
<stop offset="0.8" stop-color="#06E775"/>
<stop offset="1" stop-color="#00F076"/>
</linearGradient></defs><g id="Play Store Icon">
<path id="Vector_12" d="M103.922,35.5483h-99.906c-2.012,0 -3.597,-1.86 -3.597,-4.05v-27c0,-2.26 1.654,-4.05 3.597,-4.05h99.906c2.012,0 3.597,1.86 3.597,4.05v27c0,2.27 -1.579,4.05 -3.597,4.05z" fill="black" stroke="#A5A5A5"/>
<path id="Vector_13" d="M52.918,15.0283c-2.009,0 -3.599,1.62 -3.599,3.87c0,2.16 1.59,3.87 3.599,3.87c2.009,0 3.6,-1.62 3.6,-3.87c0,-2.34 -1.591,-3.87 -3.6,-3.87zM52.918,21.1483c-1.088,0 -2.009,-0.99 -2.009,-2.34c0,-1.35 0.921,-2.34 2.009,-2.34c1.089,0 2.009,0.9 2.009,2.34c0,1.35 -0.92,2.34 -2.009,2.34zM45.134,15.0283c-2.009,0 -3.599,1.62 -3.599,3.87c0,2.16 1.59,3.87 3.599,3.87c2.009,0 3.599,-1.62 3.599,-3.87c0,-2.34 -1.59,-3.87 -3.599,-3.87zM45.134,21.1483c-1.088,0 -2.009,-0.99 -2.009,-2.34c0,-1.35 0.921,-2.34 2.009,-2.34c1.088,0 2.009,0.9 2.009,2.34c0,1.35 -0.921,2.34 -2.009,2.34zM35.843,16.1983v1.62h3.599c-0.084,0.9 -0.418,1.62 -0.837,2.07c-0.502,0.54 -1.339,1.17 -2.762,1.17c-2.26,0 -3.934,-1.89 -3.934,-4.32c0,-2.43 1.758,-4.32 3.934,-4.32c1.172,0 2.092,0.54 2.762,1.17l1.088,-1.17c-0.921,-0.9 -2.092,-1.62 -3.766,-1.62c-3.014,0 -5.609,2.7 -5.609,5.94c0,3.24 2.595,5.94 5.609,5.94c1.674,0 2.845,-0.54 3.85,-1.71c1.004,-1.08 1.339,-2.61 1.339,-3.78c0,-0.36 0,-0.72 -0.084,-0.99zM73.844,17.4583c-0.335,-0.9 -1.172,-2.43 -3.013,-2.43c-1.842,0 -3.348,1.53 -3.348,3.87c0,2.16 1.506,3.87 3.515,3.87c1.591,0 2.595,-1.08 2.93,-1.71l-1.172,-0.9c-0.418,0.63 -0.921,1.08 -1.758,1.08c-0.837,0 -1.339,-0.36 -1.757,-1.17l4.771,-2.16zM68.989,18.7183c0,-1.44 1.089,-2.25 1.842,-2.25c0.586,0 1.172,0.36 1.339,0.81zM65.055,22.4083h1.591v-11.25h-1.591zM62.544,15.8383c-0.418,-0.45 -1.088,-0.9 -1.925,-0.9c-1.758,0 -3.432,1.71 -3.432,3.87c0,2.16 1.591,3.78 3.432,3.78c0.837,0 1.507,-0.45 1.842,-0.9h0.083v0.54c0,1.44 -0.753,2.25 -1.925,2.25c-0.921,0 -1.59,-0.72 -1.758,-1.35l-1.339,0.63c0.419,0.99 1.423,2.25 3.181,2.25c1.841,0 3.348,-1.17 3.348,-3.96v-6.84h-1.507zM60.703,21.1483c-1.088,0 -2.009,-0.99 -2.009,-2.34c0,-1.35 0.921,-2.34 2.009,-2.34c1.088,0 1.925,0.99 1.925,2.34c0,1.35 -0.837,2.34 -1.925,2.34zM81.127,11.1583h-3.767v11.25h1.59v-4.23h2.177c1.757,0 3.431,-1.35 3.431,-3.51c0,-2.16 -1.674,-3.51 -3.431,-3.51zM81.21,16.5583h-2.26v-3.87h2.26c1.172,0 1.842,1.08 1.842,1.89c-0.084,0.99 -0.754,1.98 -1.842,1.98zM90.836,14.9383c-1.172,0 -2.344,0.54 -2.762,1.71l1.423,0.63c0.335,-0.63 0.837,-0.81 1.423,-0.81c0.837,0 1.59,0.54 1.674,1.44v0.09c-0.251,-0.18 -0.921,-0.45 -1.59,-0.45c-1.507,0 -3.014,0.9 -3.014,2.52c0,1.53 1.256,2.52 2.595,2.52c1.088,0 1.59,-0.54 2.009,-1.08h0.084v0.9h1.506v-4.32c-0.167,-1.98 -1.59,-3.15 -3.348,-3.15zM90.669,21.1483c-0.502,0 -1.256,-0.27 -1.256,-0.99c0,-0.9 0.921,-1.17 1.674,-1.17c0.67,0 1.005,0.18 1.423,0.36c-0.167,1.08 -1.004,1.8 -1.841,1.8zM99.458,15.2083l-1.758,4.86h-0.084l-1.841,-4.86h-1.674l2.762,6.84l-1.591,3.78h1.591l4.269,-10.62zM85.395,22.4083h1.591v-11.25h-1.591z" fill="white"/>
<path id="Vector_14" d="M8.764,6.6583c-0.273,0.35 -0.411,0.8 -0.385,1.26v19.91c-0.026,0.46 0.112,0.91 0.385,1.26l0.058,0.06l10.371,-11.14v-0.26l-10.371,-11.15z" fill="url(#paint0_linear_1_7372)"/>
<path id="Vector_15" d="M22.625,21.7283l-3.432,-3.72v-0.26l3.432,-3.73l0.076,0.05l4.109,2.51c1.172,0.71 1.172,1.88 0,2.6l-4.093,2.5z" fill="url(#paint1_linear_1_7372)"/>
<path id="Vector_16" d="M22.725,21.6683l-3.532,-3.79l-10.429,11.21c0.238,0.23 0.543,0.35 0.861,0.36c0.318,0.01 0.629,-0.1 0.88,-0.31l12.229,-7.47" fill="url(#paint2_linear_1_7372)"/>
<path id="Vector_17" d="M22.726,14.0783l-12.23,-7.47c-0.25,-0.21 -0.561,-0.32 -0.879,-0.31c-0.318,0.01 -0.623,0.14 -0.862,0.36l10.438,11.22z" fill="url(#paint3_linear_1_7372)"/>
<path id="Vector_18" opacity="0.2" d="M22.625,21.5883l-12.129,7.43c-0.241,0.19 -0.535,0.3 -0.837,0.3c-0.301,0 -0.595,-0.11 -0.837,-0.3l-0.058,0.06l0.058,0.06c0.241,0.2 0.535,0.31 0.837,0.31c0.302,0 0.596,-0.11 0.837,-0.31l12.229,-7.47z" fill="black"/>
<path id="Vector_19" opacity="0.12" d="M8.764,28.9583c-0.273,-0.35 -0.411,-0.8 -0.385,-1.26v0.14c-0.026,0.46 0.112,0.91 0.385,1.26l0.058,-0.06z" fill="black"/>
<path id="Vector_20" opacity="0.12" d="M26.81,19.0483l-4.185,2.54l0.075,0.08l4.11,-2.5c0.233,-0.12 0.434,-0.3 0.581,-0.53c0.146,-0.22 0.235,-0.49 0.256,-0.76c-0.047,0.25 -0.147,0.48 -0.292,0.69c-0.145,0.2 -0.331,0.36 -0.545,0.48z" fill="black"/>
<path id="Vector_21" opacity="0.25" d="M10.496,6.7283l16.314,9.98c0.214,0.11 0.4,0.27 0.545,0.48c0.145,0.2 0.245,0.43 0.292,0.69c-0.021,-0.28 -0.109,-0.55 -0.256,-0.77c-0.147,-0.23 -0.348,-0.41 -0.581,-0.53l-16.314,-9.97c-1.171,-0.71 -2.126,-0.12 -2.126,1.32v0.14c0.025,-1.45 0.963,-2.05 2.126,-1.34z" fill="white"/>
</g></svg>