<svg viewBox="0 0 153 46" fill="none" xmlns="http://www.w3.org/2000/svg" xmlns:xlink="http://www.w3.org/1999/xlink" x="0" y="0"><g id="Container_107">
<g id="Margin_3">
<g id="Component 5">
<rect x="0" y="0" width="46" height="46" rx="5" fill="#058031"/>
<g id="Container_108">
<g id="Component 3_8">
<path id="Vector_35" d="M17.887,12.451h-5.092c-0.172,0 -0.315,0.061 -0.43,0.183c-0.114,0.122 -0.172,0.268 -0.172,0.44v5.092c0,0.158 0.058,0.297 0.172,0.419c0.115,0.122 0.258,0.183 0.43,0.183h5.092c0.172,0 0.315,-0.061 0.429,-0.183c0.115,-0.122 0.172,-0.261 0.172,-0.419v-5.092c0,-0.172 -0.057,-0.318 -0.172,-0.44c-0.114,-0.122 -0.257,-0.183 -0.429,-0.183zM17.328,17.607h-3.91v-3.931h3.91zM25.535,12.451h-5.07c-0.172,0 -0.319,0.061 -0.441,0.183c-0.121,0.122 -0.182,0.268 -0.182,0.44v5.092c0,0.158 0.061,0.297 0.182,0.419c0.122,0.122 0.269,0.183 0.441,0.183h5.07c0.172,0 0.319,-0.061 0.441,-0.183c0.121,-0.122 0.182,-0.261 0.182,-0.419v-5.092c0,-0.172 -0.061,-0.318 -0.182,-0.44c-0.122,-0.122 -0.269,-0.183 -0.441,-0.183zM24.998,17.607h-3.932v-3.931h3.932zM17.887,20.186h-5.092c-0.172,0 -0.315,0.057 -0.43,0.171c-0.114,0.115 -0.172,0.258 -0.172,0.43v5.092c0,0.172 0.058,0.319 0.172,0.44c0.115,0.122 0.258,0.183 0.43,0.183h5.092c0.172,0 0.315,-0.061 0.429,-0.183c0.115,-0.121 0.172,-0.268 0.172,-0.44v-5.092c0,-0.172 -0.057,-0.315 -0.172,-0.43c-0.114,-0.114 -0.257,-0.171 -0.429,-0.171zM17.328,25.256h-3.91v-3.846h3.91zM25.535,20.186h-5.07c-0.172,0 -0.319,0.057 -0.441,0.171c-0.121,0.115 -0.182,0.258 -0.182,0.43v5.092c0,0.172 0.061,0.319 0.182,0.44c0.122,0.122 0.269,0.183 0.441,0.183h5.07c0.172,0 0.319,-0.061 0.441,-0.183c0.121,-0.121 0.182,-0.268 0.182,-0.44v-5.092c0,-0.172 -0.061,-0.315 -0.182,-0.43c-0.122,-0.114 -0.269,-0.171 -0.441,-0.171zM24.998,25.256h-3.932v-3.846h3.932zM33.205,12.451h-5.092c-0.172,0 -0.315,0.061 -0.429,0.183c-0.115,0.122 -0.172,0.268 -0.172,0.44v5.092c0,0.158 0.057,0.297 0.172,0.419c0.114,0.122 0.257,0.183 0.429,0.183h5.092c0.172,0 0.315,-0.061 0.43,-0.183c0.114,-0.122 0.172,-0.261 0.172,-0.419v-5.092c0,-0.172 -0.058,-0.318 -0.172,-0.44c-0.115,-0.122 -0.258,-0.183 -0.43,-0.183zM32.646,17.607h-3.91v-3.931h3.91zM33.205,20.186h-5.092c-0.172,0 -0.315,0.057 -0.429,0.171c-0.115,0.115 -0.172,0.258 -0.172,0.43v5.092c0,0.172 0.057,0.319 0.172,0.44c0.114,0.122 0.257,0.183 0.429,0.183h5.092c0.172,0 0.315,-0.061 0.43,-0.183c0.114,-0.121 0.172,-0.268 0.172,-0.44v-5.092c0,-0.172 -0.058,-0.315 -0.172,-0.43c-0.115,-0.114 -0.258,-0.171 -0.43,-0.171zM32.646,25.256h-3.91v-3.846h3.91zM17.887,28.156h-5.092c-0.172,0 -0.315,0.058 -0.43,0.172c-0.114,0.115 -0.172,0.258 -0.172,0.43v5.092c0,0.171 0.058,0.315 0.172,0.429c0.115,0.115 0.258,0.172 0.43,0.172h5.092c0.172,0 0.315,-0.057 0.429,-0.172c0.115,-0.114 0.172,-0.258 0.172,-0.429v-5.092c0,-0.172 -0.057,-0.315 -0.172,-0.43c-0.114,-0.114 -0.257,-0.172 -0.429,-0.172zM17.328,33.291h-3.91v-3.91h3.91zM25.535,28.156h-5.07c-0.172,0 -0.319,0.058 -0.441,0.172c-0.121,0.115 -0.182,0.258 -0.182,0.43v5.092c0,0.171 0.061,0.315 0.182,0.429c0.122,0.115 0.269,0.172 0.441,0.172h5.07c0.172,0 0.319,-0.057 0.441,-0.172c0.121,-0.114 0.182,-0.258 0.182,-0.429v-5.092c0,-0.172 -0.061,-0.315 -0.182,-0.43c-0.122,-0.114 -0.269,-0.172 -0.441,-0.172zM24.998,33.291h-3.932v-3.91h3.932zM33.205,28.156h-5.092c-0.172,0 -0.315,0.058 -0.429,0.172c-0.115,0.115 -0.172,0.258 -0.172,0.43v5.092c0,0.171 0.057,0.315 0.172,0.429c0.114,0.115 0.257,0.172 0.429,0.172h5.092c0.172,0 0.315,-0.057 0.43,-0.172c0.114,-0.114 0.172,-0.258 0.172,-0.429v-5.092c0,-0.172 -0.058,-0.315 -0.172,-0.43c-0.115,-0.114 -0.258,-0.172 -0.43,-0.172zM32.646,33.291h-3.91v-3.91h3.91z" fill="white"/>
</g>
</g>
</g>
</g>
<g id="Margin_4">
<g id="Component 5_2">
<rect x="53.5" y="0" width="46" height="46" rx="5" fill="white"/>
<g id="Container_109">
<g id="Component 3_9">
<path id="Vector_36" d="M74.781,12.451h-8.465c-0.229,0 -0.422,0.083 -0.58,0.247c-0.157,0.165 -0.236,0.355 -0.236,0.57v8.486c0,0.215 0.079,0.405 0.236,0.569c0.158,0.165 0.351,0.247 0.58,0.247h8.465c0.229,0 0.423,-0.082 0.58,-0.247c0.158,-0.164 0.237,-0.354 0.237,-0.569v-8.486c0,-0.215 -0.079,-0.405 -0.237,-0.57c-0.157,-0.164 -0.351,-0.247 -0.58,-0.247zM73.965,20.938h-6.832v-6.854h6.832zM86.684,12.451h-8.465c-0.229,0 -0.423,0.083 -0.58,0.247c-0.158,0.165 -0.237,0.355 -0.237,0.57v8.486c0,0.215 0.079,0.405 0.237,0.569c0.157,0.165 0.351,0.247 0.58,0.247h8.465c0.229,0 0.422,-0.082 0.58,-0.247c0.157,-0.164 0.236,-0.354 0.236,-0.569v-8.486c0,-0.215 -0.079,-0.405 -0.236,-0.57c-0.158,-0.164 -0.351,-0.247 -0.58,-0.247zM85.867,20.938h-6.832v-6.854h6.832zM74.781,24.354h-8.465c-0.229,0 -0.422,0.078 -0.58,0.236c-0.157,0.157 -0.236,0.351 -0.236,0.58v8.465c0,0.229 0.079,0.422 0.236,0.58c0.158,0.157 0.351,0.236 0.58,0.236h8.465c0.229,0 0.423,-0.079 0.58,-0.236c0.158,-0.158 0.237,-0.351 0.237,-0.58v-8.465c0,-0.229 -0.079,-0.423 -0.237,-0.58c-0.157,-0.158 -0.351,-0.236 -0.58,-0.236zM73.965,32.818h-6.832v-6.832h6.832zM86.684,24.354h-8.465c-0.229,0 -0.423,0.078 -0.58,0.236c-0.158,0.157 -0.237,0.351 -0.237,0.58v8.465c0,0.229 0.079,0.422 0.237,0.58c0.157,0.157 0.351,0.236 0.58,0.236h8.465c0.229,0 0.422,-0.079 0.58,-0.236c0.157,-0.158 0.236,-0.351 0.236,-0.58v-8.465c0,-0.229 -0.079,-0.423 -0.236,-0.58c-0.158,-0.158 -0.351,-0.236 -0.58,-0.236zM85.867,32.818h-6.832v-6.832h6.832z" fill="black"/>
</g>
</g>
</g>
</g>
<g id="Component 5_3">
<rect x="107" y="0" width="46" height="46" rx="5" fill="white"/>
<g id="Container_110">
<g id="Component 3_10">
<path id="Vector_37" d="M119,17.672v5.221h10.441v-10.442h-10.441zM128.066,17.672v3.846h-7.691v-7.692h7.691zM131.246,15.287v0.688h9.066v-1.375h-9.066zM131.246,20.057v0.687h9.066v-1.375h-9.066zM119,29.23v5.221h10.441v-10.441h-10.441zM128.066,29.23v3.846h-7.691v-7.691h7.691zM131.246,26.846v0.687h9.066v-1.375h-9.066zM131.246,31.615v0.688h9.066v-1.375h-9.066z" fill="black"/>
</g>
</g>
</g>
</g></svg>