<svg viewBox="0 0 108 36" fill="none" xmlns="http://www.w3.org/2000/svg" xmlns:xlink="http://www.w3.org/1999/xlink" x="0" y="0"><defs><clipPath id="clip1_1_7372">
<rect width="108" height="36" fill="white" transform="translate(0, -0.0016999999998006388)"/>
</clipPath></defs><g id="App Store Icon" clip-path="url(#clip1_1_7372)">
<path id="Vector" d="M101.7,0.4483h-95.4c-3.231,0 -5.85,2.62 -5.85,5.85v23.4c0,3.23 2.619,5.85 5.85,5.85h95.4c3.231,0 5.85,-2.62 5.85,-5.85v-23.4c0,-3.23 -2.619,-5.85 -5.85,-5.85z" fill="white" stroke="currentColor"/>
<path id="Vector_2" d="M22.5,17.9083c0,-2.61 2.07,-3.87 2.25,-3.87c-1.17,-1.8 -3.06,-1.98 -3.78,-1.98c-1.53,-0.18 -3.06,0.9 -3.87,0.9c-0.81,0 -2.07,-0.9 -3.42,-0.9c-1.71,0 -3.33,0.99 -4.23,2.52c-1.8,3.15 -0.45,7.74 1.26,10.26c0.9,1.26 1.89,2.61 3.24,2.61c1.26,-0.09 1.8,-0.81 3.33,-0.81c1.53,0 1.98,0.81 3.33,0.81c1.35,0 2.25,-1.26 3.15,-2.52c0.99,-1.44 1.44,-2.79 1.44,-2.88c0,0 -2.7,-1.08 -2.7,-4.14z" fill="currentColor"/>
<path id="Vector_3" d="M19.98,10.3483c0.72,-0.9 1.17,-2.07 1.08,-3.24c-0.99,0 -2.25,0.72 -2.97,1.53c-0.63,0.72 -1.26,1.98 -1.08,3.15c1.08,0.09 2.16,-0.63 2.97,-1.44z" fill="currentColor"/>
<path id="Vector_4" d="M37.701,20.8783h-4.23l-0.99,3.06h-1.8l4.05,-11.16h1.8l4.05,11.16h-1.8zM33.921,19.5283h3.42l-1.71,-4.95h-0.09z" fill="currentColor"/>
<path id="Vector_5" d="M49.311,19.8883c0,2.52 -1.35,4.14 -3.42,4.14c-1.17,0 -2.07,-0.54 -2.52,-1.44v4.05h-1.71v-10.8h1.62v1.35c0.45,-0.9 1.44,-1.44 2.61,-1.44c1.98,-0.09 3.42,1.62 3.42,4.14zM47.511,19.8883c0,-1.62 -0.81,-2.7 -2.16,-2.7c-1.26,0 -2.16,1.08 -2.16,2.7c0,1.62 0.9,2.7 2.16,2.7c1.35,0 2.16,-1.08 2.16,-2.7z" fill="currentColor"/>
<path id="Vector_6" d="M58.221,19.8883c0,2.52 -1.35,4.14 -3.42,4.14c-1.17,0 -2.07,-0.54 -2.52,-1.44v4.05h-1.71v-10.8h1.62v1.35c0.45,-0.9 1.44,-1.44 2.61,-1.44c2.07,-0.09 3.42,1.62 3.42,4.14zM56.511,19.8883c0,-1.62 -0.81,-2.7 -2.16,-2.7c-1.26,0 -2.16,1.08 -2.16,2.7c0,1.62 0.9,2.7 2.16,2.7c1.35,0 2.16,-1.08 2.16,-2.7z" fill="currentColor"/>
<path id="Vector_7" d="M64.161,20.7883c0.09,1.08 1.17,1.8 2.7,1.8c1.44,0 2.43,-0.72 2.43,-1.71c0,-0.9 -0.63,-1.35 -2.07,-1.71l-1.44,-0.36c-2.07,-0.54 -2.97,-1.44 -2.97,-2.97c0,-1.89 1.71,-3.24 4.05,-3.24c2.34,0 3.96,1.35 4.05,3.24h-1.71c-0.09,-1.08 -0.99,-1.8 -2.34,-1.8c-1.35,0 -2.25,0.72 -2.25,1.71c0,0.81 0.63,1.26 2.07,1.62l1.26,0.27c2.25,0.54 3.24,1.44 3.24,3.06c0,2.07 -1.62,3.42 -4.32,3.42c-2.52,0 -4.14,-1.26 -4.23,-3.33z" fill="currentColor"/>
<path id="Vector_8" d="M74.601,13.8583v1.89h1.53v1.35h-1.53v4.5c0,0.72 0.27,0.99 0.99,0.99c0.18,0 0.45,0 0.54,0v1.35c-0.18,0.09 -0.54,0.09 -0.9,0.09c-1.62,0 -2.25,-0.63 -2.25,-2.16v-4.68h-1.17v-1.35h1.17v-1.89h1.62z" fill="currentColor"/>
<path id="Vector_9" d="M77.121,19.8883c0,-2.52 1.53,-4.14 3.87,-4.14c2.34,0 3.87,1.62 3.87,4.14c0,2.61 -1.53,4.14 -3.87,4.14c-2.43,0 -3.87,-1.62 -3.87,-4.14zM83.151,19.8883c0,-1.8 -0.81,-2.79 -2.16,-2.79c-1.35,0 -2.16,0.99 -2.16,2.79c0,1.8 0.81,2.79 2.16,2.79c1.35,0 2.16,-1.08 2.16,-2.79z" fill="currentColor"/>
<path id="Vector_10" d="M86.211,15.7483h1.62v1.44c0.27,-0.9 0.99,-1.44 1.98,-1.44c0.27,0 0.45,0 0.54,0.09v1.53c-0.09,-0.09 -0.45,-0.09 -0.72,-0.09c-1.08,0 -1.71,0.72 -1.71,1.89v4.86h-1.71z" fill="currentColor"/>
<path id="Vector_11" d="M98.091,21.5083c-0.27,1.44 -1.71,2.52 -3.51,2.52c-2.34,0 -3.87,-1.62 -3.87,-4.14c0,-2.52 1.44,-4.23 3.78,-4.23c2.25,0 3.69,1.53 3.69,4.05v0.54h-5.76v0.09c0,1.35 0.9,2.34 2.16,2.34c0.9,0 1.62,-0.45 1.89,-1.17zM92.421,19.0783h4.05c0,-1.26 -0.81,-2.07 -1.98,-2.07c-1.17,0 -1.98,0.9 -2.07,2.07z" fill="currentColor"/>
</g></svg>