<svg viewBox="0 0 12.7359 16.2497" fill="none" xmlns="http://www.w3.org/2000/svg" xmlns:xlink="http://www.w3.org/1999/xlink" x="0" y="0"><path id="Vector_99" d="M12.0219,3.4266c-0.474,-0.9344 -1.175,-1.7346 -2.039,-2.3272c-0.864,-0.5926 -1.863,-0.9584 -2.906,-1.0639c-0.471,-0.0473 -0.946,-0.0473 -1.418,0c-1.042,0.1056 -2.041,0.4714 -2.905,1.0639c-0.865,0.5925 -1.566,1.3926 -2.04,2.3269c-0.596,1.1921 -0.827,2.5341 -0.662,3.8568c0.165,1.3228 0.717,2.5673 1.588,3.5767l4.245,5.1618c0.059,0.0713 0.133,0.1287 0.216,0.1682c0.084,0.0394 0.175,0.0599 0.267,0.0599c0.092,0 0.184,-0.0205 0.267,-0.0599c0.084,-0.0395 0.157,-0.0969 0.216,-0.1682l4.245,-5.1618c0.871,-1.0093 1.424,-2.2538 1.588,-3.5765c0.165,-1.3227 -0.065,-2.6646 -0.662,-3.8567zM6.3679,8.7495c-0.494,0 -0.978,-0.1466 -1.389,-0.4213c-0.411,-0.2747 -0.731,-0.6652 -0.921,-1.122c-0.189,-0.4568 -0.238,-0.9595 -0.142,-1.4444c0.097,-0.485 0.335,-0.9304 0.684,-1.2801c0.35,-0.3496 0.795,-0.5877 1.28,-0.6842c0.485,-0.0964 0.988,-0.0469 1.445,0.1423c0.457,0.1892 0.847,0.5097 1.122,0.9208c0.274,0.4111 0.421,0.8944 0.421,1.3889c-0.001,0.6628 -0.264,1.2982 -0.733,1.7669c-0.469,0.4687 -1.104,0.7323 -1.767,0.7331z" fill="currentColor"/></svg>