<svg viewBox="0 0 14.043 14.0365" fill="none" xmlns="http://www.w3.org/2000/svg" xmlns:xlink="http://www.w3.org/1999/xlink" x="0" y="0"><path id="Vector_109" d="M5.4518,0.013c-0.52,0.078 -1.01,0.199 -1.45,0.361c-0.44,0.163 -0.86,0.375 -1.25,0.635c-0.7,0.482 -1.28,1.061 -1.73,1.738c-0.45,0.677 -0.75,1.439 -0.92,2.286c-0.07,0.312 -0.1,0.693 -0.1,1.142c0,0.449 0.03,0.83 0.1,1.143c0.05,0.312 0.12,0.592 0.21,0.839c0.09,0.248 0.2,0.508 0.33,0.782c0.3,0.599 0.67,1.126 1.12,1.582c0.45,0.456 0.96,0.83 1.51,1.123c0.55,0.293 1.15,0.498 1.79,0.615c0.62,0.117 1.26,0.13 1.91,0.039c0.5,-0.065 0.98,-0.192 1.47,-0.381c0.48,-0.189 0.91,-0.413 1.28,-0.674l0.18,-0.136l1.41,1.386c0.71,0.717 1.17,1.153 1.35,1.309c0.19,0.156 0.37,0.234 0.52,0.234c0.24,0 0.44,-0.084 0.61,-0.253c0.17,-0.17 0.25,-0.372 0.25,-0.606c0,-0.156 -0.08,-0.329 -0.23,-0.518c-0.16,-0.188 -0.6,-0.641 -1.31,-1.357l-1.39,-1.387l0.24,-0.371c0.54,-0.846 0.87,-1.771 0.97,-2.773c0.11,-1.003 -0.03,-1.973 -0.41,-2.91c-0.19,-0.495 -0.45,-0.951 -0.76,-1.368c-0.31,-0.416 -0.67,-0.791 -1.07,-1.123c-0.41,-0.332 -0.85,-0.608 -1.33,-0.83c-0.48,-0.221 -0.98,-0.377 -1.51,-0.468c-0.19,-0.039 -0.49,-0.062 -0.9,-0.069c-0.41,-0.006 -0.71,-0.003 -0.89,0.01zM6.9518,1.712c0.47,0.091 0.9,0.241 1.3,0.449c0.4,0.209 0.77,0.482 1.1,0.821c0.21,0.208 0.38,0.397 0.5,0.566c0.13,0.169 0.25,0.371 0.36,0.606c0.32,0.612 0.48,1.272 0.48,1.982c0.01,0.71 -0.14,1.377 -0.44,2.002c-0.21,0.443 -0.51,0.856 -0.9,1.24c-0.39,0.384 -0.81,0.681 -1.27,0.889c-0.56,0.273 -1.17,0.413 -1.83,0.42c-0.67,0.006 -1.29,-0.114 -1.88,-0.362c-0.47,-0.195 -0.91,-0.494 -1.32,-0.898c-0.42,-0.404 -0.74,-0.833 -0.96,-1.289c-0.3,-0.625 -0.45,-1.292 -0.44,-2.002c0.01,-0.71 0.16,-1.37 0.48,-1.982c0.11,-0.235 0.23,-0.437 0.36,-0.606c0.12,-0.169 0.29,-0.358 0.5,-0.566c0.35,-0.352 0.74,-0.635 1.16,-0.85c0.42,-0.215 0.89,-0.361 1.41,-0.439c0.13,-0.026 0.36,-0.036 0.68,-0.03c0.32,0.007 0.56,0.023 0.71,0.049z" fill="currentColor"/></svg>