<svg viewBox="0 0 12 5.9946" fill="none" xmlns="http://www.w3.org/2000/svg" xmlns:xlink="http://www.w3.org/1999/xlink" x="0" y="0"><path id="Vector_38" d="M11.93,0.0765c-0.05,-0.047 -0.11,-0.072 -0.18,-0.076c-0.07,-0.004 -0.13,0.018 -0.17,0.064l-5.58,5.332l-5.58,-5.332c-0.04,-0.046 -0.1,-0.068 -0.17,-0.064c-0.07,0.004 -0.13,0.029 -0.18,0.076c-0.05,0.047 -0.07,0.106 -0.07,0.176c0,0.07 0.03,0.129 0.08,0.176l5.74,5.496c0.03,0.023 0.06,0.041 0.09,0.053c0.03,0.011 0.06,0.017 0.09,0.017c0.03,0 0.06,-0.006 0.09,-0.017c0.03,-0.012 0.06,-0.03 0.09,-0.053l5.74,-5.496c0.05,-0.047 0.08,-0.106 0.08,-0.176c0,-0.07 -0.02,-0.129 -0.07,-0.176z" fill="currentColor"/></svg>