<svg viewBox="0 0 80 16" fill="none" xmlns="http://www.w3.org/2000/svg" xmlns:xlink="http://www.w3.org/1999/xlink" x="0" y="0"><g id="Component 3_12">
<path id="Vector_39" d="M8,12.41l4.938,3.59l-1.876,-5.86l4.938,-3.47h-6l-2,-6l-2,6h-6l4.938,3.47l-1.876,5.86z" fill="currentColor"/>
<path id="Vector_40" d="M24,12.41l4.938,3.59l-1.876,-5.86l4.938,-3.47h-6l-2,-6l-2,6h-6l4.938,3.47l-1.876,5.86z" fill="currentColor"/>
<path id="Vector_41" d="M40,12.41l4.938,3.59l-1.876,-5.86l4.938,-3.47h-6l-2,-6l-2,6h-6l4.938,3.47l-1.876,5.86z" fill="currentColor"/>
<path id="Vector_42" d="M56,12.41l4.938,3.59l-1.876,-5.86l4.938,-3.47h-6l-2,-6l-2,6h-6l4.938,3.47l-1.876,5.86z" fill="currentColor"/>
<path id="Vector_43" d="M72,12.41l4.938,3.59l-1.876,-5.86l4.938,-3.47h-6l-2,-6l-2,6h-6l4.938,3.47l-1.876,5.86z" fill="currentColor"/>
</g></svg>